<svg width="868" height="257" viewBox="0 0 868 257" fill="none" xmlns="http://www.w3.org/2000/svg">
<g filter="url(#filter0_d_728_2835)">
<rect x="72" y="33" width="724.391" height="113.383" rx="20.9968" fill="white"/>
<rect width="50.3924" height="50.3924" transform="translate(103.496 64.4951)" fill="white"/>
<path fill-rule="evenodd" clip-rule="evenodd" d="M151.874 90.2398C151.874 88.5276 151.72 86.8813 151.435 85.3008H128.693V94.641H141.688C141.129 97.6593 139.428 100.217 136.87 101.929V107.987H144.674C149.24 103.784 151.874 97.5935 151.874 90.2398Z" fill="#4285F4"/>
<path fill-rule="evenodd" clip-rule="evenodd" d="M128.693 113.837C135.213 113.837 140.679 111.675 144.674 107.987L136.87 101.928C134.708 103.377 131.942 104.233 128.693 104.233C122.404 104.233 117.081 99.9856 115.182 94.2783H107.115V100.534C111.088 108.426 119.254 113.837 128.693 113.837Z" fill="#34A853"/>
<path fill-rule="evenodd" clip-rule="evenodd" d="M115.182 94.2794C114.699 92.8306 114.425 91.283 114.425 89.6916C114.425 88.1001 114.699 86.5525 115.182 85.1038V78.8477H107.115C105.48 82.1074 104.547 85.7952 104.547 89.6916C104.547 93.5879 105.48 97.2757 107.115 100.535L115.182 94.2794Z" fill="#FBBC05"/>
<path fill-rule="evenodd" clip-rule="evenodd" d="M128.693 75.1486C132.238 75.1486 135.421 76.3669 137.924 78.7596L144.849 71.834C140.668 67.9376 135.202 65.5449 128.693 65.5449C119.254 65.5449 111.088 70.9559 107.115 78.8474L115.182 85.1035C117.081 79.3962 122.404 75.1486 128.693 75.1486Z" fill="#EA4335"/>
<path d="M191.766 71.286V74.0995H215.492V71.286H191.766ZM187.482 87.5795V90.4351H221.791V87.5795H187.482ZM202.81 89.4692V106.813H206.296V89.4692H202.81ZM213.855 71.286V74.5615C213.855 78.3829 213.855 82.7922 212.385 88.9233L215.828 89.3852C217.256 82.9602 217.256 78.5089 217.256 74.5615V71.286H213.855ZM230.481 70.4041V73.2177H254.921V70.4041H230.481ZM226.113 82.9182V85.7738H260.506V82.9182H226.113ZM252.653 70.4041V72.8397C252.653 75.5273 252.653 78.8028 251.646 83.4221L255.047 83.8001C256.055 79.0968 256.055 75.5693 256.055 72.8397V70.4041H252.653ZM230.145 89.5112V92.3248H252.737V96.4822H230.229V104.461H233.714V99.1698H256.181V89.5112H230.145ZM230.229 103.537V106.351H257.147V103.537H230.229ZM264.744 99.2118V102.109H299.137V99.2118H264.744ZM280.114 91.065V100.43H283.599V91.065H280.114ZM268.902 71.6219V74.4355H291.452V80.3146H269.028V90.729H272.471V83.1282H294.896V71.6219H268.902ZM269.028 89.2593V92.1148H295.778V89.2593H269.028ZM313.833 99.2118V102.109H348.225V99.2118H313.833ZM329.202 91.065V100.43H332.688V91.065H329.202ZM317.99 71.6219V74.4355H340.541V80.3146H318.116V90.729H321.559V83.1282H343.984V71.6219H317.99ZM318.116 89.2593V92.1148H344.866V89.2593H318.116ZM356.159 72.8397V75.6533H380.599V72.8397H356.159ZM352.464 98.3299V101.227H386.772V98.3299H352.464ZM378.752 72.8397V76.6192C378.752 81.3225 378.752 86.9916 377.24 94.7604L380.725 95.0964C382.153 86.9076 382.153 81.4904 382.153 76.6192V72.8397H378.752ZM418.684 68.8503V96.5662H422.212V68.8503H418.684ZM397.813 103.075V105.931H423.346V103.075H397.813ZM397.813 93.7106V104.041H401.257V93.7106H397.813ZM401.845 71.4539C396.176 71.4539 391.934 75.3174 391.934 80.8185C391.934 86.2777 396.176 90.1831 401.845 90.1831C407.514 90.1831 411.713 86.2777 411.713 80.8185C411.713 75.3174 407.514 71.4539 401.845 71.4539ZM401.845 74.4775C405.54 74.4775 408.354 77.0811 408.354 80.8185C408.354 84.514 405.54 87.1176 401.845 87.1176C398.149 87.1176 395.336 84.514 395.336 80.8185C395.336 77.0811 398.149 74.4775 401.845 74.4775ZM455.425 68.8083V106.771H458.911V68.8083H455.425ZM458.071 84.388V87.3275H465.126V84.388H458.071ZM429.515 74.8554V77.711H451.898V74.8554H429.515ZM440.854 80.8605C435.52 80.8605 431.615 84.472 431.615 89.5952C431.615 94.7184 435.52 98.3299 440.854 98.3299C446.229 98.3299 450.092 94.7184 450.092 89.5952C450.092 84.472 446.229 80.8605 440.854 80.8605ZM440.854 83.7581C444.297 83.7581 446.775 86.1517 446.775 89.5952C446.775 92.9967 444.297 95.4323 440.854 95.4323C437.41 95.4323 434.933 92.9967 434.933 89.5952C434.933 86.1517 437.41 83.7581 440.854 83.7581ZM439.048 69.2703V76.1572H442.533V69.2703H439.048ZM495.988 68.8083V106.771H499.474V68.8083H495.988ZM484.86 72.8817V73.4696C484.86 83.5481 479.779 91.6109 468.818 96.9021L470.666 99.7157C483.348 93.5006 488.303 83.8841 488.303 72.8817H484.86ZM470.54 72.8817V75.7373H486.372V72.8817H470.54Z" fill="black" fill-opacity="0.54"/>
</g>
<defs>
<filter id="filter0_d_728_2835" x="0.524376" y="0.0112572" width="867.342" height="256.334" filterUnits="userSpaceOnUse" color-interpolation-filters="sRGB">
<feFlood flood-opacity="0" result="BackgroundImageFix"/>
<feColorMatrix in="SourceAlpha" type="matrix" values="0 0 0 0 0 0 0 0 0 0 0 0 0 0 0 0 0 0 127 0" result="hardAlpha"/>
<feOffset dy="38.4869"/>
<feGaussianBlur stdDeviation="35.7378"/>
<feColorMatrix type="matrix" values="0 0 0 0 0 0 0 0 0 0 0 0 0 0 0 0 0 0 0.07 0"/>
<feBlend mode="normal" in2="BackgroundImageFix" result="effect1_dropShadow_728_2835"/>
<feBlend mode="normal" in="SourceGraphic" in2="effect1_dropShadow_728_2835" result="shape"/>
</filter>
</defs>
</svg>
