<svg width="49" height="49" viewBox="0 0 49 49" fill="none" xmlns="http://www.w3.org/2000/svg">
<path d="M22.459 8.16699H8.16732C7.08435 8.16699 6.04574 8.5972 5.27996 9.36297C4.51419 10.1287 4.08398 11.1674 4.08398 12.2503V40.8337C4.08398 41.9166 4.51419 42.9552 5.27996 43.721C6.04574 44.4868 7.08435 44.917 8.16732 44.917H36.7506C37.8336 44.917 38.8722 44.4868 39.638 43.721C40.4038 42.9552 40.834 41.9166 40.834 40.8337V26.542" stroke="#667080" stroke-width="4.08333" stroke-linecap="round" stroke-linejoin="round"/>
<path d="M37.7715 5.10447C38.5837 4.29224 39.6853 3.83594 40.834 3.83594C41.9826 3.83594 43.0843 4.29224 43.8965 5.10447C44.7087 5.91669 45.165 7.01831 45.165 8.16697C45.165 9.31563 44.7087 10.4172 43.8965 11.2295L24.5007 30.6253L16.334 32.667L18.3757 24.5003L37.7715 5.10447Z" stroke="#667080" stroke-width="4.08333" stroke-linecap="round" stroke-linejoin="round"/>
</svg>
