<svg width="54" height="54" viewBox="0 0 54 54" fill="none" xmlns="http://www.w3.org/2000/svg">
<path d="M27 29.25C28.2426 29.25 29.25 28.2426 29.25 27C29.25 25.7574 28.2426 24.75 27 24.75C25.7574 24.75 24.75 25.7574 24.75 27C24.75 28.2426 25.7574 29.25 27 29.25Z" stroke="#667080" stroke-width="4.5" stroke-linecap="round" stroke-linejoin="round"/>
<path d="M27 13.5C28.2426 13.5 29.25 12.4926 29.25 11.25C29.25 10.0074 28.2426 9 27 9C25.7574 9 24.75 10.0074 24.75 11.25C24.75 12.4926 25.7574 13.5 27 13.5Z" stroke="#667080" stroke-width="4.5" stroke-linecap="round" stroke-linejoin="round"/>
<path d="M27 45C28.2426 45 29.25 43.9926 29.25 42.75C29.25 41.5074 28.2426 40.5 27 40.5C25.7574 40.5 24.75 41.5074 24.75 42.75C24.75 43.9926 25.7574 45 27 45Z" stroke="#667080" stroke-width="4.5" stroke-linecap="round" stroke-linejoin="round"/>
</svg>
