<svg width="53" height="53" viewBox="0 0 53 53" fill="none" xmlns="http://www.w3.org/2000/svg">
<path d="M41.6346 7.3418H11.4866C9.10794 7.3418 7.17969 9.27004 7.17969 11.6487V41.7967C7.17969 44.1753 9.10794 46.1036 11.4866 46.1036H41.6346C44.0132 46.1036 45.9415 44.1753 45.9415 41.7967V11.6487C45.9415 9.27004 44.0132 7.3418 41.6346 7.3418Z" stroke="#667080" stroke-width="4.30686" stroke-linecap="round" stroke-linejoin="round"/>
<path d="M19.0231 22.4154C20.8071 22.4154 22.2533 20.9692 22.2533 19.1852C22.2533 17.4013 20.8071 15.9551 19.0231 15.9551C17.2392 15.9551 15.793 17.4013 15.793 19.1852C15.793 20.9692 17.2392 22.4154 19.0231 22.4154Z" stroke="#667080" stroke-width="4.30686" stroke-linecap="round" stroke-linejoin="round"/>
<path d="M45.9412 33.1832L35.1741 22.416L11.4863 46.1038" stroke="#667080" stroke-width="4.30686" stroke-linecap="round" stroke-linejoin="round"/>
</svg>
