<svg width="33" height="37" viewBox="0 0 33 37" fill="none" xmlns="http://www.w3.org/2000/svg">
<path d="M25.4375 23.125C23.8037 23.125 22.3021 23.69 21.1167 24.635L13.7105 20.0061C13.9298 19.014 13.9298 17.9859 13.7105 16.9938L21.1167 12.3649C22.3021 13.31 23.8037 13.875 25.4375 13.875C29.269 13.875 32.375 10.769 32.375 6.9375C32.375 3.10605 29.269 0 25.4375 0C21.606 0 18.5 3.10605 18.5 6.9375C18.5 7.45478 18.5571 7.95861 18.6645 8.44359L11.2583 13.0725C10.0729 12.1275 8.57128 11.5625 6.9375 11.5625C3.10605 11.5625 0 14.6685 0 18.5C0 22.3315 3.10605 25.4375 6.9375 25.4375C8.57128 25.4375 10.0729 24.8725 11.2583 23.9275L18.6645 28.5564C18.555 29.051 18.4999 29.556 18.5 30.0625C18.5 33.894 21.606 37 25.4375 37C29.269 37 32.375 33.894 32.375 30.0625C32.375 26.231 29.269 23.125 25.4375 23.125Z" fill="#5B5B5B"/>
</svg>
